<?xml version="1.0" encoding="UTF-8"?><svg id="Layer_1" xmlns="http://www.w3.org/2000/svg" viewBox="0 0 144 144"><rect x="22.45" y="72.22" width="2.94" height="5.19" rx="1.37" ry="1.37" style="fill:#fff; stroke-width:0px;"/><rect x="28.05" y="72.22" width="2.94" height="5.19" rx="1.37" ry="1.37" style="fill:#fff; stroke-width:0px;"/><path d="M26.8,61.33c-7.6,0-13.77,6.17-13.77,13.77,0,1.47.23,2.88.66,4.21l-2.94,4.76h5.62c2.53,2.93,6.26,4.8,10.43,4.8,7.6,0,13.77-6.17,13.77-13.77s-6.17-13.77-13.77-13.77ZM35.8,74.85c0,4.93-4.07,8.93-9.1,8.93s-9.1-4-9.1-8.93,3.76-8.6,8.51-8.9v-1.4c-.42-.22-.72-.65-.72-1.16,0-.74.6-1.33,1.33-1.33s1.33.6,1.33,1.33c0,.53-.32.99-.77,1.2v1.37c2.06.13,3.93.92,5.39,2.18h5.81l-2.87,4.96c.12.57.18,1.16.18,1.76Z" style="fill:#fff; stroke-width:0px;"/><path d="M47.01,72.42c1.22-1.45,2.5-1.51,3.06-1.51.6,0,1.57.14,2.34.74,1.08.85,1.05,2.48,1.06,3.64v5.89h-2.65v-5.31c0-1.7,0-2.92-1.65-2.92-2.17,0-2.17,2.09-2.17,3.19v5.03h-2.65v-13.86h2.65v5.11Z" style="fill:#fff; stroke-width:0px;"/><path d="M64.72,78.43c-.21.62-1.05,2.98-4.38,2.98-.87,0-3.19-.12-4.26-2.4-.45-.97-.6-1.96-.6-2.79,0-2.71,1.43-5.31,4.61-5.31,3.78,0,4.82,3.04,4.76,6h-6.66c.04,1.2.68,2.46,2.19,2.46,1.24,0,1.55-.93,1.68-1.39l2.65.45ZM62.23,75.29c-.06-2.19-1.57-2.34-1.98-2.34-1.26,0-2.01,1.03-1.99,2.34h3.97Z" style="fill:#fff; stroke-width:0px;"/><path d="M68.3,71.15l2.38,7.13h.04l2.32-7.13h2.75l-3.54,9.66c-.04.08-.14.37-.25.66-.77,2.25-1.32,3.78-4.14,3.78-.7,0-1.14-.08-1.51-.15l-.23-2.07c.46.1.72.12,1.12.12.6,0,1.53-.08,2.05-1.94l-3.81-10.05h2.83Z" style="fill:#fff; stroke-width:0px;"/><path d="M76.12,71.15h2.59l1.86,6.56h.04l1.7-6.56h2.58l1.65,6.56h.04l1.9-6.56h2.61l-3.21,10.03h-2.56l-1.7-6.47h-.04l-1.68,6.47h-2.58l-3.2-10.03Z" style="fill:#fff; stroke-width:0px;"/><path d="M95.13,72.42c1.22-1.45,2.5-1.51,3.06-1.51.6,0,1.57.14,2.34.74,1.08.85,1.05,2.48,1.07,3.64v5.89h-2.65v-5.31c0-1.7,0-2.92-1.65-2.92-2.17,0-2.17,2.09-2.17,3.19v5.03h-2.65v-13.86h2.65v5.11Z" style="fill:#fff; stroke-width:0px;"/><path d="M112.85,78.43c-.21.62-1.05,2.98-4.38,2.98-.87,0-3.2-.12-4.26-2.4-.45-.97-.6-1.96-.6-2.79,0-2.71,1.43-5.31,4.61-5.31,3.78,0,4.82,3.04,4.76,6h-6.66c.04,1.2.68,2.46,2.19,2.46,1.24,0,1.55-.93,1.68-1.39l2.65.45ZM110.35,75.29c-.06-2.19-1.57-2.34-1.97-2.34-1.26,0-2.01,1.03-1.99,2.34h3.97Z" style="fill:#fff; stroke-width:0px;"/><path d="M115.09,67.31h2.65v13.86h-2.65v-13.86Z" style="fill:#fff; stroke-width:0px;"/><path d="M122.9,71.15v1.47h.04c1.03-1.49,2.48-1.7,3.08-1.7,2.17,0,4.2,1.74,4.2,5.34s-1.99,5.15-4.22,5.15c-1.63,0-2.54-.95-2.92-1.39v4.98h-2.65v-13.84h2.48ZM125.28,79.37c1.96,0,2.21-2.11,2.21-3.23,0-2.48-1.2-3.12-2.11-3.12-.37,0-.95.1-1.43.56-.64.62-.89,1.36-.89,2.81,0,2.03.99,2.98,2.23,2.98Z" style="fill:#fff; stroke-width:0px;"/></svg>